<svg id="Layer_1" xmlns="http://www.w3.org/2000/svg" viewBox="0 0 128 16"><style>.st0{fill:#1f1f1f}.st1{fill:#2ea839}</style><path class="st0" d="M11.4 4c.3 0 .4.1.4.4V5c.5-.4 1.5-1.1 3.1-1.1 1.3 0 2.1.5 2.5 1.3.5-.4 1.5-1.3 3.3-1.3 1.8 0 2.8 1.1 2.8 2.5v6.9c0 .3-.1.4-.4.4H22c-.3 0-.4-.1-.4-.4V6.8c0-.8-.4-1.3-1.4-1.3-1.3 0-2.2.7-2.6 1v6.8c0 .3-.1.4-.3.4h-1.1c-.3 0-.4-.1-.4-.4V6.8c0-.8-.4-1.3-1.4-1.3-1.2 0-2.1.7-2.5 1v6.8c0 .3-.1.4-.4.4h-1.1c-.3 0-.4-.1-.4-.4V4.4c0-.3.1-.4.4-.4h1zm14.5 2.5c0-1.6 1-2.6 3.7-2.6 2.8 0 3.7 1.1 3.7 2.6v6.8c0 .3-.1.4-.4.4h-1c-.3 0-.4-.1-.4-.4v-.6c-.6.4-1.6 1.1-3.1 1.1-1.8 0-2.8-1.1-2.8-2.4v-.9c0-1.3.9-2.4 2.7-2.4h3.1V6.7c0-.8-.4-1.3-1.9-1.3s-1.9.5-1.9 1.3v.2c0 .3-.1.4-.4.4h-1c-.3 0-.4-.1-.4-.4l.1-.4zm5.6 4.8V9.6h-2.7c-1 0-1.3.4-1.3 1.2v.4c0 .8.4 1.1 1.4 1.1 1.2 0 2.2-.6 2.6-1zm9.7-7.1v.9c0 .3-.1.4-.4.4-1.5.1-2.6.9-3 1.2v6.5c0 .3-.1.4-.4.4h-1.1c-.3 0-.4-.1-.4-.4V4.4c0-.3.1-.4.4-.4h1c.3 0 .4.1.4.4l.1.8c.5-.5 1.6-1.4 3-1.4.3.1.4.2.4.4zm6.4 8.5v.8c0 .3-.1.4-.4.4h-.6c-1.3 0-2.2-.2-2.8-.7-.5-.5-.7-1.2-.7-2.2V2.6c0-.3.1-.4.4-.4h1.1c.3 0 .3.1.3.4v1.3h2c.3 0 .4.1.4.4V5c0 .3-.1.4-.4.4H45V11c0 .8.6 1.2 1.9 1.2h.4c.2.1.3.2.3.5zM7.7 9.8v1.4c0 .8-.4 2.7-3.9 2.7C.4 13.9 0 12 0 11.2V11c0-.3.2-.5.5-.5h1c.2 0 .5.1.5.5 0 .3 0 1.2 1.9 1.2s1.9-.9 1.9-1.2v-.8c0-.6-.5-.9-1.3-1.2L1.8 7.9C1 7.6.2 6.8.2 5.7v-.9c0-1 .5-2.7 3.7-2.7 1.3 0 2.3.3 2.9.8.5.5.8 1.1.8 1.9V5c0 .3-.2.5-.5.5h-1c-.4 0-.4-.4-.4-.5 0-.6-.2-1.2-1.8-1.2S2.1 4.4 2.1 5v.3c0 .6.3.8.7.9l3 1.1c1.3.6 1.9 1.4 1.9 2.5z"/><path class="st1" d="M126.3 8.8l-3.1-1c-.5-.1-1.1-.6-1.1-1.2V6c0-.8.7-1.4 2.3-1.4 1.7 0 2.4.5 2.4 1.4v.1c0 .2.1.2.2.2h.5c.2 0 .2-.1.2-.2V6c0-1.2-.9-2.1-3.3-2.1s-3.3 1-3.3 2.1v.8c0 1 .9 1.7 1.5 1.9l3.1 1c.7.2 1.2.6 1.2 1.2v.9c0 .8-.8 1.4-2.5 1.4s-2.5-.6-2.5-1.4v-.1c0-.2-.1-.2-.2-.2h-.5c-.2 0-.2.1-.2.2v.1c0 1.2 1 2.1 3.4 2.1s3.5-1 3.5-2.1v-1.2c.1-.9-.6-1.5-1.6-1.8zM83.8 3.9c-1.5 0-2.8.9-3.3 1.4V4.2c0-.2-.1-.2-.2-.2h-.5c-.2 0-.2.1-.2.2v9.3c0 .2.1.2.2.2h.6c.2 0 .2-.1.2-.2V6.2c.5-.4 1.8-1.3 3.3-1.4.2 0 .3-.1.3-.2v-.5c-.1-.2-.2-.2-.4-.2zm9 .1h-.6c-.1 0-.2.1-.2.3v7.5c-.5.4-1.5 1.2-3 1.2-1.4 0-1.9-.7-1.9-1.6V4.3c-.1-.2-.2-.3-.3-.3h-.6c-.1 0-.2.1-.2.3v7.3c0 1.4.9 2.3 2.7 2.3 1.7 0 2.8-.7 3.3-1.2v.8c0 .2.1.2.2.2h.5c.2 0 .2-.1.2-.2V4.3c.1-.2 0-.3-.1-.3zm4.1.8h-.6c-.2 0-.2.1-.2.3v8.5c0 .2.1.2.2.2h.6c.2 0 .2-.1.2-.2V5c0-.2 0-.2-.2-.2zm0-2.6h-.6c-.2 0-.2.1-.2.3v.7c0 .2.1.2.2.2h.6c.2 0 .2-.1.2-.2v-.8c0-.1 0-.2-.2-.2zm7.2 10.8h-.3c-1.9 0-2.4-.7-2.4-1.6V5.3h2.3c.2 0 .2-.1.2-.2v-.5c0-.2-.1-.2-.2-.2h-2.3v-2c0-.2-.1-.3-.2-.3h-.6c-.2 0-.2.1-.2.3v9.1c0 1.4.7 2.4 3.3 2.4h.4c.2 0 .2-.1.2-.2v-.4c0-.2-.1-.3-.2-.3zm15.7-9.1c-1.5 0-2.8.9-3.4 1.5V4.3c0-.2-.1-.2-.2-.2h-.5c-.2 0-.2.1-.2.2v9.4c0 .2.1.2.2.2h.6c.2 0 .2-.1.2-.2V6.2c.5-.4 1.8-1.3 3.4-1.4.2 0 .3-.1.3-.2v-.5c-.1-.2-.2-.2-.4-.2zM71 6.4v5c0 1 .5 1.6 2.4 1.6s2.5-.6 2.5-1.6v-.1c0-.2.1-.2.2-.2h.5c.1 0 .2.1.2.2v.2c0 1.4-.8 2.4-3.5 2.4-2.6 0-3.5-1-3.5-2.4V6.3c0-1.4.8-2.4 3.5-2.4 2.6 0 3.5 1 3.5 2.4v.2c0 .2-.1.2-.2.2h-.5c-.1 0-.2-.1-.2-.2v-.1c0-1-.5-1.6-2.5-1.6-1.9-.1-2.4.6-2.4 1.6zM67.6 9c.1 0 .2-.1.2-.2V6.3c0-1.4-.8-2.4-3.5-2.4s-3.5 1-3.5 2.4v5.2c0 1.4.8 2.4 3.5 2.4s3.5-1 3.5-2.4v-.2c0-.2-.1-.2-.2-.2h-.5c-.2 0-.2.1-.2.2v.2c0 1-.5 1.6-2.5 1.6s-2.5-.7-2.5-1.6V9h5.7zm-5.8-2.6c0-.9.6-1.6 2.5-1.6s2.5.7 2.5 1.6v1.8h-5V6.4zM112.3 9c.1 0 .2-.1.2-.2V6.3c0-1.4-.8-2.4-3.5-2.4s-3.5 1-3.5 2.4v5.2c0 1.4.8 2.4 3.5 2.4 2.6 0 3.4-.9 3.5-2.3 0-.2-.1-.2-.2-.2h-.5c-.2 0-.2 0-.2.2-.1.9-.6 1.5-2.5 1.5-2 0-2.5-.7-2.5-1.6V9h5.7zm-5.8-2.6c0-.9.6-1.6 2.5-1.6s2.5.7 2.5 1.6v1.8h-5V6.4zm-56-4.2zm8.2 11.2l-1.9-4.6c.1 0 .2-.1.3-.1 1-.4 1.4-1.1 1.4-2.1v-2c0-1.6-1.2-2.4-3.6-2.4h-4.5c-.1 0-.1.1-.1.2v11c0 .2.1.2.2.2h.6c.2 0 .3-.1.3-.3V9h4.5l1.8 4.5c0 .1.1.2.3.2h.5c.1 0 .2 0 .2-.1v-.2zM55 8.1h-3.6v-5H55c2.3 0 2.5.9 2.5 1.7v1.7c0 .6-.2 1.6-2.5 1.6zm1.9.7c-.1 0-.1 0 0 0-.1 0-.1 0 0 0z"/></svg>